# xmcd
#
# Track frame offsets: 
#        150
#        31844
#        42789
#        74196
#        85206
#        100836
#        124229
#        142517
#        179739
#        195883
#        206048
#        220233
#        239296
#
# Disc length: 3481 seconds
#
# Revision: 1
# Processed by: cddbd v1.5.1PL0 Copyright (c) Steve Scherf et al.
# Submitted via: ExactAudioCopy v0.90b4
#
DISCID=b80d970d
DTITLE=Various Artist - 30 Years North Sea Jazz Festival CD 02 1981-1985
DYEAR=2005
DGENRE=Jazz
TTITLE0=Chet Baker - On You Crazy Moon
TTITLE1=Shirley Horn - Loads of Love
TTITLE2=The Gil Evans Orchestra - Sister Sadie
TTITLE3=Rosemary Clooney - Blue Moon
TTITLE4=Ernestine Anderson - I'll Never Be the Same
TTITLE5=Dave Brubeck and Paul Desmond - These Foolish Things
TTITLE6=Benny Goodman - I Ain 't Got Nobody
TTITLE7=Stan Getz - I Thought About You
TTITLE8=Johnny Griffin - I Cried For You
TTITLE9=Jimmy Smith - Organ Grinder's Swing
TTITLE10=Cleo Laine - Dunsinane Blues (After Macbeth)
TTITLE11=Illinois Jacquet - Star Eyes
TTITLE12=Joe Williams - Who She Do
EXTD=YEAR: 2005
EXTT0=
EXTT1=
EXTT2=
EXTT3=
EXTT4=
EXTT5=
EXTT6=
EXTT7=
EXTT8=
EXTT9=
EXTT10=
EXTT11=
EXTT12=
PLAYORDER=
